<svg xmlns="http://www.w3.org/2000/svg" fill="currentColor" viewBox="0 0 105 20"><path d="M3.472 0v7.019c.677-.607 1.37-1.11 2.048-1.456a5.7 5.7 0 0 1 2.395-.502c1.892 0 3.437.676 4.722 2.045 1.284 1.369 1.979 3.154 1.979 5.407 0 2.149-.677 3.865-1.98 5.303-1.37 1.456-2.933 2.15-4.72 2.15-.869 0-1.546-.174-2.327-.434-.677-.26-1.371-.78-2.048-1.456v1.456H0V0zm3.697 8.406c-1.111 0-2.048.346-2.83 1.109-.78.762-1.11 1.802-1.11 2.998 0 1.282.347 2.322 1.11 3.085s1.615 1.213 2.83 1.213c1.11 0 1.979-.433 2.76-1.213s1.11-1.803 1.11-2.998c0-1.214-.346-2.219-1.11-2.999-.712-.832-1.65-1.195-2.76-1.195m20.015-2.895h3.524v14.142h-3.524v-1.542c-.677.676-1.371 1.109-2.048 1.456A6.5 6.5 0 0 1 22.81 20c-1.806 0-3.437-.676-4.722-2.15-1.371-1.455-1.979-3.153-1.979-5.303 0-2.218.677-3.934 1.98-5.407 1.284-1.369 2.829-2.045 4.72-2.045.869 0 1.615.174 2.396.503.781.346 1.458.78 2.048 1.456V5.51zM23.4 8.405c-1.111 0-1.979.434-2.76 1.214a4.5 4.5 0 0 0-1.111 2.998c0 1.213.347 2.218 1.11 2.998.765.78 1.615 1.213 2.76 1.213a3.63 3.63 0 0 0 2.76-1.213c.782-.78 1.112-1.802 1.112-3.085 0-1.213-.348-2.218-1.111-2.998-.695-.763-1.632-1.127-2.76-1.127m9.617-2.894h3.09v1.803c.347-.676.781-1.214 1.285-1.612.503-.347 1.11-.503 1.805-.503.434 0 .937.104 1.458.347L39.544 8.63c-.434-.174-.781-.347-1.041-.347-.504 0-1.042.347-1.372 1.04-.347.676-.607 1.976-.607 3.934v6.43H33V5.51zM54.92 8.336l-3.002 1.612c-.504-.606-1.111-.936-1.614-1.213-.504-.26-1.216-.347-1.893-.347-1.37 0-2.395.434-3.263 1.214s-1.215 1.802-1.215 3.084c0 1.214.434 2.219 1.215 2.93.781.78 1.805 1.108 3.09 1.108 1.614 0 2.83-.502 3.697-1.611l2.83 1.889C53.22 18.978 51.067 20 48.325 20c-2.483 0-4.479-.78-5.85-2.218-1.371-1.439-2.135-3.172-2.135-5.148 0-1.369.347-2.651 1.041-3.76.677-1.11 1.615-2.045 2.934-2.756 1.215-.676 2.586-1.04 4.131-1.04 1.371 0 2.656.26 3.767.867 1.11.606 2.03 1.351 2.708 2.391M56.468 0h3.524v6.863a8.8 8.8 0 0 1 2.048-1.37c.677-.26 1.458-.432 2.152-.432 1.372 0 2.587.502 3.524 1.455.868.867 1.215 2.045 1.215 3.692v9.376h-3.42v-6.187c0-1.612-.104-2.756-.26-3.362-.174-.607-.434-1.04-.781-1.283-.347-.26-.868-.433-1.371-.433a3.1 3.1 0 0 0-1.892.676c-.504.502-.868 1.109-1.111 1.976-.104.433-.174 1.369-.174 2.928v5.668h-3.524V0zm25.186 5.511h3.524v14.142h-3.524v-1.542c-.677.676-1.371 1.109-2.048 1.456a6.3 6.3 0 0 1-2.222.433c-1.805 0-3.437-.676-4.722-2.15-1.37-1.455-1.978-3.153-1.978-5.303 0-2.218.677-3.934 1.978-5.407 1.285-1.369 2.83-2.045 4.722-2.045.868 0 1.614.174 2.395.503.781.346 1.458.78 2.049 1.456V5.51zm-3.715 2.894c-1.11 0-1.978.434-2.76 1.214a4.5 4.5 0 0 0-1.11 2.998c0 1.213.347 2.218 1.11 2.998s1.615 1.213 2.76 1.213a3.63 3.63 0 0 0 2.76-1.213c.781-.78 1.111-1.802 1.111-3.085 0-1.213-.347-2.218-1.11-2.998-.695-.763-1.65-1.127-2.76-1.127m9.53-2.894h3.09v1.803c.347-.676.781-1.214 1.285-1.612.503-.347 1.11-.503 1.805-.503.434 0 .937.104 1.458.347l-1.11 3.085c-.435-.174-.782-.347-1.042-.347-.504 0-1.042.347-1.372 1.04-.347.676-.607 1.976-.607 3.934v6.43h-3.524zM98.405.277h3.61v5.234h2.153v3.085h-2.153v11.161h-3.61V8.597h-1.823V5.51h1.805V.277z"></path></svg>