<svg xmlns="http://www.w3.org/2000/svg" fill="currentColor" viewBox="0 0 147 20"><path d="M21.09 19.938h14.08v-3.722h-9.825V11.65h8.146V7.925h-8.146V3.722h9.885V0H21.09zm31.038-7.388L42.903 0h-6.352l1.978 2.523V20h4.253V6.907l9.527 13.03h4.074V0h-4.255zM14.68 9.68c1.869-.36 3.427-2.102 3.427-4.562C18.094 2.46 16.178 0 12.343 0H0l1.916 2.46v17.487h10.857c3.838 0 5.814-2.401 5.814-5.405-.072-2.47-1.764-4.572-3.907-4.862M6.172 3.747h5.333c1.44 0 2.337.843 2.337 2.102s-.898 2.101-2.337 2.101H6.172zm5.51 12.49h-5.51V11.65h5.51c1.62 0 2.518 1.021 2.518 2.283 0 1.44-.96 2.282-2.517 2.282zm106.954-3.687h2.218v2.345a6.5 6.5 0 0 1-4.075 1.498c-3.536 0-6.05-2.7-6.05-6.363s2.514-6.367 6.05-6.367a5.46 5.46 0 0 1 4.555 2.523l3.355-1.874C123.253 2.042 120.732 0 116.72 0c-5.633 0-10.306 3.903-10.306 9.97s4.614 9.968 10.306 9.968a10.61 10.61 0 0 0 8.147-3.604V8.95h-9.107zm-19.169 0L90.239 0h-6.352l1.978 2.523V20h4.256V6.907l9.526 13.03h4.072V0h-4.252zM138.949 0h-8.206l1.975 2.523-.358.959L126.008 20h4.794l1.247-3.366h8.582L141.878 20h4.791zm-5.807 12.853 3.115-8.59 3.116 8.59zM81.431 0h-4.255v20h4.255zM73.76 3.422V0H58.776v3.722h9.409l-9.409 12.793v3.422H73.94v-3.722h-9.648z"></path></svg>