<svg xmlns="http://www.w3.org/2000/svg" fill="currentColor" viewBox="0 0 255 20"><path d="M244.482 10.445s-.34-.085-.382.255c0 .17.042.298.212.425.042.042.085.042.127.042.637.043 1.401-1.061 1.91-1.91.212-.383.297-.51.424-.51.042 0 .212-.043.424.34.255.467 1.613 1.826 3.31 1.443.085-.17-.255-.297-.424-.424 0 0-.722-.552.212-.807.891-.212 1.357.127 2.121-.51.043-.212-.424-.297-.424-.297s-.552-.34 1.018-.807c.764-.212.764-.34.637-.424-.128-.085-.509-.255.042-.595.552-.382.934-.85.891-1.02-.085-.126-.339-.084-.636.086-.34.17-.764.085-1.019-.297-.212-.383-.466-.298-.763-.085s-.891.552-1.188 0c-.17-.637-.085-.467.381-1.36.467-.848.552-1.57.552-1.698s-.085-.212-.509 0c-.382.085-.424-1.783-.424-2.038 0 0 0-.51-.297-.085-.255.297-1.188 1.189-1.486 1.316-.297.085-.721-.17-.678-.552 0-.382-.255-.254-.34 0-.085.213-.806 2.506-.976 2.633s-.297.467-.594-.085-.848-1.91-1.315-1.231c-.127-.128-.976-1.274-1.697-1.317-.085.128.085.467.212.552.127.17.127.637 0 .977s-.127.764.042 1.19c.085.211-.042.551-.594.594-.551.085-.466.212-.212.552.212.297 1.103 1.019 1.315 1.316.213.255-.042.595-.424.637s-.764-.085-.891.127c-.042.213.297.128.424.34 0 0 .722 1.317 1.698 1.274.976-.085 1.018.043.891.467-.085.255-.849 1.402-1.57 1.486m-199.21 6.328c-.381 1.274-1.017 1.868-2.036 1.868h-3.818c0-.637 0-2.548.042-4.289 0-1.104.042-3.057.042-3.354h4.837V9.426h-4.837v-7.6h2.97c1.019 0 1.486.381 1.782 1.358l.976 3.312c.425-.042.807-.042 1.23-.127V.806H33.903v1.02h1.74V18.64h-4.54V1.825h1.951V.805h-7.637v1.02h1.909v7.686h-5.77V1.825h1.909V.805H.212L0 6.412c.467.043.806.128 1.273.128l.976-3.567c.297-1.02.594-1.19 1.74-1.19H5.94V18.6H3.31v1.019h9.08v-1.02H9.716V1.784h2.037c1.188 0 1.4.254 1.697 1.189l.976 3.567c.467-.043.806-.128 1.273-.128V1.783h2.037v16.816h-2.164v1.019h7.892v-1.02h-1.91v-7.685h5.729v7.686h-1.91v1.019h21.724l.212-5.818-1.23-.212zm16.803-3.695h1.952v5.18c-.637.213-1.358.383-2.08.383-2.63 0-4.412-1.953-4.412-8.62 0-4.374 1.103-8.28 4.328-8.28 2.334 0 3.182 1.995 4.03 5.18l1.359-.297V1.613C66.7 1.273 64.918.55 61.82.55c-5.22 0-8.36 5.138-8.36 10.022 0 6.37 3.65 9.427 8.275 9.427 1.103 0 3.14-.425 4.285-.85l1.74-.127v-6.921h-5.643zm17.227 3.652c-.467 1.401-1.019 1.911-2.08 1.911h-2.757c.127-.17.127-2.038.127-16.816h2.079V.805h-7.85v1.02h1.952v16.816h-2.036v1.02h12.39l.424-6.03c-.425-.043-.764-.043-1.189-.128zM89.527.51c-5.43 0-7.807 4.628-7.807 9.936 0 6.37 3.225 9.513 7.807 9.513 5.431 0 7.85-4.63 7.85-9.937-.042-5.988-2.97-9.512-7.85-9.512m0 18.175c-1.697 0-3.776-1.487-3.776-8.45 0-6.37 1.527-8.409 3.776-8.409 1.528 0 3.819 1.02 3.819 8.45-.042 6.71-1.91 8.409-3.819 8.409m18.712-8.663v-.17c2.079-.595 3.649-2.633 3.649-4.162 0-3.015-2.079-4.883-6.068-4.883h-7.807v1.02h1.995V18.64h-1.995v1.02h7.935c3.988 0 6.322-2.039 6.322-4.97 0-2.25-1.697-4.16-4.031-4.67m-4.413-8.196h1.952c1.4 0 2.503 1.104 2.503 4.162 0 1.826-.763 3.44-2.079 3.44h-2.376zm2.164 16.816h-1.909c-.255 0-.255-.255-.255-.637V10.53h2.207c1.824 0 2.376 1.741 2.376 4.12 0 3.27-1.103 3.991-2.419 3.991m18.669-1.868c-.381 1.274-1.018 1.868-1.994 1.868h-3.819c0-.637 0-2.548.043-4.289 0-1.104.042-3.057.042-3.354h4.837V9.426h-4.837v-7.6h2.97c1.019 0 1.485.381 1.783 1.358l.975 3.312c.425-.042.764-.042 1.231-.127V.806h-12.517v1.02h1.74V18.64h-2.419v1.02h13.79l.212-5.818-1.23-.255zM171.078.806h-12.941v1.02c1.994 0 2.333.509 2.333 1.57v9.343A1794 1794 0 0 1 153.3.806h-4.965v.892c.807.254 1.401.849 1.867 1.486v13.589c0 1.613-.848 1.826-1.697 1.868h-.933L142.098.806h-2.588c-.721 2.845-4.837 15.67-4.837 15.67-.382 1.188-1.018 2.208-2.249 2.208h-.042v.976h6.025v-1.019h-.212c-1.655-.127-2.164-.17-2.164-1.359 0-.382.042-.764.127-1.316l.976-3.397h4.582l1.74 6.072h-2.079v1.02h12.602v-.977c-2.334-.043-2.461-.68-2.461-1.869V5.18c2.927 4.84 5.77 9.682 8.698 14.48h1.485V3.396c0-1.231.764-1.528 2.121-1.57h1.952V18.64h-2.079v1.02h7.595c5.558 0 8.741-4.375 8.741-9.64.042-5.393-3.607-9.215-8.953-9.215M137.431 11.55l1.994-6.922 1.994 6.922zm32.841 7.091c-.467 0-.637-.297-.637-.85V1.784c3.989 0 6.153 2.505 6.153 8.408 0 6.115-1.698 8.45-5.516 8.45m57.62 0V1.825h1.739V.805h-7.595v1.02h1.782v16.816h-2.97L215.375.806h-2.588c-.679 2.845-4.837 15.67-4.837 15.67-.34 1.104-.934 2.038-1.995 2.165h-1.485l-1.018-16.816h2.164V.805h-5.898l-3.564 10.023c-1.188-3.313-2.419-6.71-3.522-10.022h-6.237v1.02c1.952 0 2.079.296 2.079 2.165v.212c-.17 3.355-.551 9.555-.806 13.037-.042.764-.679 1.401-2.376 1.486v.934h6.619v-.976c-2.376-.043-2.758-.85-2.758-1.444 0-.34.085-2.76.17-5.138.127-3.27.212-5.351.339-8.663v.127c1.613 4.501 3.31 9.088 4.88 13.589l.594-.297c1.57-4.247 3.097-8.366 4.709-12.57l.722 14.31h-1.825v1.02h12.857v-1.02h-.17c-1.655-.127-2.164-.17-2.164-1.358 0-.382.042-.765.127-1.317l.976-3.397h4.625l1.782 6.073h-2.079v1.019h14.935v-1.02h-1.739zm-17.185-7.091 1.995-6.922 1.994 6.922zm31.484 1.953-1.061 3.227c-.467 1.401-1.019 1.911-2.079 1.911h-2.758c.127-.17.127-2.038.127-16.816h2.079V.805h-7.849v1.02h1.951v16.816h-2.036v1.02h12.389l.425-6.03c-.425-.043-.764-.043-1.188-.128"></path></svg>