<svg xmlns="http://www.w3.org/2000/svg" fill="currentColor" viewBox="0 0 86 24"><path d="M24.778 5.867V7.11c-.708-.925-2.019-1.558-3.537-1.558-3.588 0-6.261 3.194-6.261 6.945 0 3.853 2.646 6.944 6.261 6.944 1.518 0 2.829-.608 3.537-1.585v1.24h4.476V5.867zM30.8.005v19.091h4.637v-7.055c0-1.373.655-2.19 1.702-2.19s1.599.71 1.599 2.032v7.208h4.635v-8.318c0-3.22-1.728-5.226-4.506-5.226a4.2 4.2 0 0 0-1.919.388c-.6.28-1.127.698-1.537 1.221V0zm42.406 12.483c0 3.96-3.012 6.945-7.02 6.945s-7.02-2.985-7.02-6.945c0-3.959 3.012-6.944 7.02-6.944s7.02 2.985 7.02 6.944m-14.826 0c0 3.96-3.012 6.945-7.018 6.945-4.005 0-7.02-2.985-7.02-6.945 0-3.959 3.012-6.944 7.02-6.944s7.018 2.985 7.018 6.944M0 5.858l5.604 13.336L3.588 24h4.923l7.465-18.141h-4.897L8.04 13.62 5.028 5.856zm22.183 9.35a2.65 2.65 0 0 1-1.931-.776 2.7 2.7 0 0 1-.793-1.938 2.7 2.7 0 0 1 .792-1.939 2.66 2.66 0 0 1 1.932-.775 2.64 2.64 0 0 1 1.913.785 2.68 2.68 0 0 1 .779 1.929 2.7 2.7 0 0 1-.779 1.928 2.66 2.66 0 0 1-1.913.786m31.798-2.714a2.63 2.63 0 0 0-.747-1.896 2.6 2.6 0 0 0-1.872-.772 2.57 2.57 0 0 0-1.872.772 2.6 2.6 0 0 0-.747 1.896 2.62 2.62 0 0 0 .747 1.894 2.58 2.58 0 0 0 1.872.77 2.56 2.56 0 0 0 1.872-.77 2.6 2.6 0 0 0 .747-1.894m14.824 0a2.62 2.62 0 0 0-.747-1.896 2.58 2.58 0 0 0-1.872-.772 2.57 2.57 0 0 0-1.872.772 2.6 2.6 0 0 0-.747 1.896 2.62 2.62 0 0 0 .747 1.894 2.58 2.58 0 0 0 1.872.77 2.56 2.56 0 0 0 1.872-.77 2.6 2.6 0 0 0 .747-1.894m4.977 3.8a3.02 3.02 0 0 0 .869 2.16 2.97 2.97 0 0 0 2.14.881 3.07 3.07 0 0 0 2.212-.913 3.12 3.12 0 0 0 .906-2.23 3 3 0 0 0-.867-2.162 2.96 2.96 0 0 0-2.145-.874 3.1 3.1 0 0 0-2.208.917 3.13 3.13 0 0 0-.91 2.226zM80.382.01l-4.936 11.98h5.502L85.87.004z"></path></svg>